<mxfile host="app.diagrams.net" modified="2024-09-30T17:29:46.604Z" agent="Mozilla/5.0 (Windows NT 10.0; Win64; x64) AppleWebKit/537.36 (KHTML, like Gecko) Chrome/129.0.0.0 Safari/537.36" etag="7b4NOtwpJ1mxekbIedp8" version="21.7.0" type="device">
  <diagram name="Page-1" id="5f0bae14-7c28-e335-631c-24af17079c00">
    <mxGraphModel dx="1050" dy="522" grid="1" gridSize="10" guides="1" tooltips="1" connect="1" arrows="1" fold="1" page="1" pageScale="1" pageWidth="1100" pageHeight="850" background="none" math="0" shadow="0">
      <root>
        <mxCell id="0" />
        <mxCell id="1" parent="0" />
        <mxCell id="39150e848f15840c-1" value="Linux server" style="verticalAlign=top;align=left;spacingTop=8;spacingLeft=2;spacingRight=12;shape=cube;size=10;direction=south;fontStyle=4;html=1;rounded=0;shadow=0;comic=0;labelBackgroundColor=none;strokeWidth=1;fontFamily=Verdana;fontSize=12" parent="1" vertex="1">
          <mxGeometry x="120" y="70" width="470" height="330" as="geometry" />
        </mxCell>
        <mxCell id="39150e848f15840c-4" value="event-ticket-manager&lt;br&gt;app Nest.js (Node.js)" style="html=1;rounded=0;shadow=0;comic=0;labelBackgroundColor=none;strokeWidth=1;fontFamily=Verdana;fontSize=12;align=center;" parent="1" vertex="1">
          <mxGeometry x="270" y="110" width="170" height="50" as="geometry" />
        </mxCell>
        <mxCell id="39150e848f15840c-11" style="edgeStyle=none;rounded=0;html=1;dashed=1;labelBackgroundColor=none;startArrow=none;startFill=0;startSize=8;endArrow=open;endFill=0;endSize=16;fontFamily=Verdana;fontSize=12;exitX=0.5;exitY=1;exitDx=0;exitDy=0;entryX=0;entryY=0.3333333333333333;entryDx=0;entryDy=0;entryPerimeter=0;" parent="1" source="CNqK91oINI2MVfUo3MTQ-3" target="CNqK91oINI2MVfUo3MTQ-13" edge="1">
          <mxGeometry relative="1" as="geometry">
            <mxPoint x="919.7900000000001" y="461.13" as="sourcePoint" />
            <mxPoint x="810.0035273664099" y="250.0021680123267" as="targetPoint" />
          </mxGeometry>
        </mxCell>
        <mxCell id="CNqK91oINI2MVfUo3MTQ-1" value="MariaDB" style="shape=cylinder3;whiteSpace=wrap;html=1;boundedLbl=1;backgroundOutline=1;size=15;" vertex="1" parent="1">
          <mxGeometry x="130" y="195" width="80" height="80" as="geometry" />
        </mxCell>
        <mxCell id="CNqK91oINI2MVfUo3MTQ-3" value="&lt;font style=&quot;font-size: 16px;&quot;&gt;reverse proxy nginx&lt;/font&gt;" style="html=1;rounded=0;shadow=0;comic=0;labelBackgroundColor=none;strokeWidth=1;fontFamily=Verdana;fontSize=12;align=center;rotation=-90;" vertex="1" parent="1">
          <mxGeometry x="400" y="217.5" width="250" height="35" as="geometry" />
        </mxCell>
        <mxCell id="CNqK91oINI2MVfUo3MTQ-4" value="Redis cache server" style="html=1;rounded=0;shadow=0;comic=0;labelBackgroundColor=none;strokeWidth=1;fontFamily=Verdana;fontSize=12;align=center;" vertex="1" parent="1">
          <mxGeometry x="270" y="210" width="170" height="50" as="geometry" />
        </mxCell>
        <mxCell id="CNqK91oINI2MVfUo3MTQ-5" value="Directus data manager&lt;br&gt;(auxiliar backoffice)" style="html=1;rounded=0;shadow=0;comic=0;labelBackgroundColor=none;strokeWidth=1;fontFamily=Verdana;fontSize=12;align=center;" vertex="1" parent="1">
          <mxGeometry x="270" y="310" width="170" height="50" as="geometry" />
        </mxCell>
        <mxCell id="CNqK91oINI2MVfUo3MTQ-6" style="edgeStyle=none;rounded=0;html=1;dashed=1;labelBackgroundColor=none;startArrow=none;startFill=0;startSize=8;endArrow=open;endFill=0;endSize=16;fontFamily=Verdana;fontSize=12;exitX=1;exitY=0;exitDx=0;exitDy=15;exitPerimeter=0;entryX=0;entryY=0.5;entryDx=0;entryDy=0;" edge="1" parent="1" source="CNqK91oINI2MVfUo3MTQ-1" target="39150e848f15840c-4">
          <mxGeometry relative="1" as="geometry">
            <mxPoint x="559.7900000000001" y="381.13" as="sourcePoint" />
            <mxPoint x="450.0035273664099" y="170.0021680123267" as="targetPoint" />
          </mxGeometry>
        </mxCell>
        <mxCell id="CNqK91oINI2MVfUo3MTQ-9" style="edgeStyle=none;rounded=0;html=1;dashed=1;labelBackgroundColor=none;startArrow=none;startFill=0;startSize=8;endArrow=open;endFill=0;endSize=16;fontFamily=Verdana;fontSize=12;entryX=0.5;entryY=1;entryDx=0;entryDy=0;exitX=0.5;exitY=0;exitDx=0;exitDy=0;" edge="1" parent="1" source="CNqK91oINI2MVfUo3MTQ-4" target="39150e848f15840c-4">
          <mxGeometry relative="1" as="geometry">
            <mxPoint x="909.7900000000001" y="481.13" as="sourcePoint" />
            <mxPoint x="800.0035273664099" y="270.0021680123267" as="targetPoint" />
          </mxGeometry>
        </mxCell>
        <mxCell id="CNqK91oINI2MVfUo3MTQ-10" style="edgeStyle=none;rounded=0;html=1;dashed=1;labelBackgroundColor=none;startArrow=none;startFill=0;startSize=8;endArrow=open;endFill=0;endSize=16;fontFamily=Verdana;fontSize=12;entryX=0;entryY=0.5;entryDx=0;entryDy=0;exitX=1;exitY=1;exitDx=0;exitDy=-15;exitPerimeter=0;" edge="1" parent="1" source="CNqK91oINI2MVfUo3MTQ-1" target="CNqK91oINI2MVfUo3MTQ-5">
          <mxGeometry relative="1" as="geometry">
            <mxPoint x="319.7900000000001" y="491.13" as="sourcePoint" />
            <mxPoint x="210.0035273664099" y="280.0021680123267" as="targetPoint" />
          </mxGeometry>
        </mxCell>
        <mxCell id="CNqK91oINI2MVfUo3MTQ-11" style="edgeStyle=none;rounded=0;html=1;dashed=1;labelBackgroundColor=none;startArrow=none;startFill=0;startSize=8;endArrow=open;endFill=0;endSize=16;fontFamily=Verdana;fontSize=12;exitX=1;exitY=0.5;exitDx=0;exitDy=0;entryX=0.896;entryY=0.071;entryDx=0;entryDy=0;entryPerimeter=0;" edge="1" parent="1" source="39150e848f15840c-4" target="CNqK91oINI2MVfUo3MTQ-3">
          <mxGeometry relative="1" as="geometry">
            <mxPoint x="719.7900000000001" y="340.56" as="sourcePoint" />
            <mxPoint x="610.0035273664099" y="129.4321680123267" as="targetPoint" />
          </mxGeometry>
        </mxCell>
        <mxCell id="CNqK91oINI2MVfUo3MTQ-12" style="edgeStyle=none;rounded=0;html=1;dashed=1;labelBackgroundColor=none;startArrow=none;startFill=0;startSize=8;endArrow=open;endFill=0;endSize=16;fontFamily=Verdana;fontSize=12;exitX=1;exitY=0.5;exitDx=0;exitDy=0;entryX=0.099;entryY=-0.02;entryDx=0;entryDy=0;entryPerimeter=0;" edge="1" parent="1" source="CNqK91oINI2MVfUo3MTQ-5" target="CNqK91oINI2MVfUo3MTQ-3">
          <mxGeometry relative="1" as="geometry">
            <mxPoint x="939.7900000000001" y="511.13" as="sourcePoint" />
            <mxPoint x="830.0035273664099" y="300.0021680123267" as="targetPoint" />
          </mxGeometry>
        </mxCell>
        <mxCell id="CNqK91oINI2MVfUo3MTQ-13" value="Web" style="shape=umlActor;verticalLabelPosition=bottom;verticalAlign=top;html=1;outlineConnect=0;" vertex="1" parent="1">
          <mxGeometry x="650" y="215" width="30" height="60" as="geometry" />
        </mxCell>
      </root>
    </mxGraphModel>
  </diagram>
</mxfile>
